<mxfile host="app.diagrams.net" modified="2023-05-13T06:39:27.255Z" agent="Mozilla/5.0 (X11; Linux x86_64) AppleWebKit/537.36 (KHTML, like Gecko) Chrome/113.0.0.0 Safari/537.36" etag="SKyQBxGX8ca6XjG7xELw" version="21.2.9" type="github">
  <diagram name="第 1 页" id="6_5NIOfknfMMVY00nYu0">
    <mxGraphModel dx="337" dy="175" grid="1" gridSize="10" guides="1" tooltips="1" connect="1" arrows="1" fold="1" page="1" pageScale="1" pageWidth="583" pageHeight="827" math="0" shadow="0">
      <root>
        <mxCell id="0" />
        <mxCell id="1" parent="0" />
        <mxCell id="1anbtyB_ODF39JOE69Np-36" style="edgeStyle=orthogonalEdgeStyle;rounded=0;orthogonalLoop=1;jettySize=auto;html=1;exitX=1;exitY=0.5;exitDx=0;exitDy=0;entryX=0.5;entryY=1;entryDx=0;entryDy=0;" edge="1" parent="1" source="1anbtyB_ODF39JOE69Np-1" target="1anbtyB_ODF39JOE69Np-3">
          <mxGeometry relative="1" as="geometry" />
        </mxCell>
        <mxCell id="1anbtyB_ODF39JOE69Np-1" value="修复前图像" style="rounded=0;whiteSpace=wrap;html=1;" vertex="1" parent="1">
          <mxGeometry x="20" y="40" width="40" height="40" as="geometry" />
        </mxCell>
        <mxCell id="1anbtyB_ODF39JOE69Np-37" style="edgeStyle=orthogonalEdgeStyle;rounded=0;orthogonalLoop=1;jettySize=auto;html=1;exitX=0.5;exitY=0;exitDx=0;exitDy=0;entryX=0;entryY=0.5;entryDx=0;entryDy=0;" edge="1" parent="1" source="1anbtyB_ODF39JOE69Np-3" target="1anbtyB_ODF39JOE69Np-4">
          <mxGeometry relative="1" as="geometry" />
        </mxCell>
        <mxCell id="1anbtyB_ODF39JOE69Np-3" value="" style="shape=trapezoid;perimeter=trapezoidPerimeter;whiteSpace=wrap;html=1;fixedSize=1;rotation=90;size=10;" vertex="1" parent="1">
          <mxGeometry x="93.14" y="23.14" width="40" height="73.74" as="geometry" />
        </mxCell>
        <mxCell id="1anbtyB_ODF39JOE69Np-4" value="" style="rounded=0;whiteSpace=wrap;html=1;" vertex="1" parent="1">
          <mxGeometry x="170" y="10" width="222" height="100" as="geometry" />
        </mxCell>
        <mxCell id="1anbtyB_ODF39JOE69Np-6" value="" style="rounded=0;whiteSpace=wrap;html=1;" vertex="1" parent="1">
          <mxGeometry x="530" y="40" width="40" height="40" as="geometry" />
        </mxCell>
        <mxCell id="1anbtyB_ODF39JOE69Np-7" value="" style="rounded=0;whiteSpace=wrap;html=1;" vertex="1" parent="1">
          <mxGeometry x="10" y="120" width="300" height="80" as="geometry" />
        </mxCell>
        <mxCell id="1anbtyB_ODF39JOE69Np-8" value="" style="rounded=0;whiteSpace=wrap;html=1;" vertex="1" parent="1">
          <mxGeometry x="330" y="120" width="240" height="80" as="geometry" />
        </mxCell>
        <mxCell id="1anbtyB_ODF39JOE69Np-14" style="edgeStyle=orthogonalEdgeStyle;rounded=0;orthogonalLoop=1;jettySize=auto;html=1;exitX=1;exitY=0.5;exitDx=0;exitDy=0;entryX=0;entryY=0.5;entryDx=0;entryDy=0;" edge="1" parent="1" source="1anbtyB_ODF39JOE69Np-9" target="1anbtyB_ODF39JOE69Np-13">
          <mxGeometry relative="1" as="geometry" />
        </mxCell>
        <mxCell id="1anbtyB_ODF39JOE69Np-9" value="S&lt;br&gt;T&lt;br&gt;L" style="rounded=0;whiteSpace=wrap;html=1;" vertex="1" parent="1">
          <mxGeometry x="40" y="138.75" width="20" height="42.5" as="geometry" />
        </mxCell>
        <mxCell id="1anbtyB_ODF39JOE69Np-19" style="edgeStyle=orthogonalEdgeStyle;rounded=0;orthogonalLoop=1;jettySize=auto;html=1;exitX=1;exitY=0.5;exitDx=0;exitDy=0;entryX=0.013;entryY=0.522;entryDx=0;entryDy=0;entryPerimeter=0;" edge="1" parent="1" source="1anbtyB_ODF39JOE69Np-13" target="1anbtyB_ODF39JOE69Np-15">
          <mxGeometry relative="1" as="geometry" />
        </mxCell>
        <mxCell id="1anbtyB_ODF39JOE69Np-13" value="S&lt;br&gt;T&lt;br&gt;L" style="rounded=0;whiteSpace=wrap;html=1;" vertex="1" parent="1">
          <mxGeometry x="70" y="138.75" width="20" height="42.5" as="geometry" />
        </mxCell>
        <mxCell id="1anbtyB_ODF39JOE69Np-27" style="edgeStyle=orthogonalEdgeStyle;rounded=0;orthogonalLoop=1;jettySize=auto;html=1;exitX=1;exitY=0.5;exitDx=0;exitDy=0;entryX=0;entryY=0.5;entryDx=0;entryDy=0;" edge="1" parent="1" source="1anbtyB_ODF39JOE69Np-15" target="1anbtyB_ODF39JOE69Np-16">
          <mxGeometry relative="1" as="geometry" />
        </mxCell>
        <mxCell id="1anbtyB_ODF39JOE69Np-15" value="S&lt;br&gt;T&lt;br&gt;L" style="rounded=0;whiteSpace=wrap;html=1;" vertex="1" parent="1">
          <mxGeometry x="102.5" y="138.75" width="20" height="42.5" as="geometry" />
        </mxCell>
        <mxCell id="1anbtyB_ODF39JOE69Np-28" style="edgeStyle=orthogonalEdgeStyle;rounded=0;orthogonalLoop=1;jettySize=auto;html=1;exitX=1;exitY=0.5;exitDx=0;exitDy=0;entryX=0;entryY=0.5;entryDx=0;entryDy=0;" edge="1" parent="1" source="1anbtyB_ODF39JOE69Np-16" target="1anbtyB_ODF39JOE69Np-17">
          <mxGeometry relative="1" as="geometry" />
        </mxCell>
        <mxCell id="1anbtyB_ODF39JOE69Np-16" value="S&lt;br&gt;T&lt;br&gt;L" style="rounded=0;whiteSpace=wrap;html=1;" vertex="1" parent="1">
          <mxGeometry x="140" y="138.75" width="20" height="42.5" as="geometry" />
        </mxCell>
        <mxCell id="1anbtyB_ODF39JOE69Np-29" style="edgeStyle=orthogonalEdgeStyle;rounded=0;orthogonalLoop=1;jettySize=auto;html=1;exitX=1;exitY=0.5;exitDx=0;exitDy=0;entryX=0;entryY=0.5;entryDx=0;entryDy=0;" edge="1" parent="1" source="1anbtyB_ODF39JOE69Np-17" target="1anbtyB_ODF39JOE69Np-18">
          <mxGeometry relative="1" as="geometry" />
        </mxCell>
        <mxCell id="1anbtyB_ODF39JOE69Np-17" value="S&lt;br&gt;T&lt;br&gt;L" style="rounded=0;whiteSpace=wrap;html=1;" vertex="1" parent="1">
          <mxGeometry x="170" y="138.75" width="20" height="42.5" as="geometry" />
        </mxCell>
        <mxCell id="1anbtyB_ODF39JOE69Np-32" style="edgeStyle=orthogonalEdgeStyle;rounded=0;orthogonalLoop=1;jettySize=auto;html=1;exitX=1;exitY=0.5;exitDx=0;exitDy=0;entryX=0.5;entryY=0;entryDx=0;entryDy=0;" edge="1" parent="1" source="1anbtyB_ODF39JOE69Np-18" target="1anbtyB_ODF39JOE69Np-30">
          <mxGeometry relative="1" as="geometry" />
        </mxCell>
        <mxCell id="1anbtyB_ODF39JOE69Np-18" value="S&lt;br&gt;T&lt;br&gt;L" style="rounded=0;whiteSpace=wrap;html=1;" vertex="1" parent="1">
          <mxGeometry x="200" y="138.75" width="20" height="42.5" as="geometry" />
        </mxCell>
        <mxCell id="1anbtyB_ODF39JOE69Np-20" value="&lt;font face=&quot;Times New Roman&quot; style=&quot;font-size: 13px;&quot;&gt;R&lt;br&gt;S&lt;br&gt;T&lt;br&gt;B&lt;/font&gt;" style="rounded=0;whiteSpace=wrap;html=1;" vertex="1" parent="1">
          <mxGeometry x="180" y="29.380000000000003" width="20" height="61.25" as="geometry" />
        </mxCell>
        <mxCell id="1anbtyB_ODF39JOE69Np-21" value="&lt;font face=&quot;Times New Roman&quot; style=&quot;font-size: 13px;&quot;&gt;R&lt;br&gt;S&lt;br&gt;T&lt;br&gt;B&lt;/font&gt;" style="rounded=0;whiteSpace=wrap;html=1;" vertex="1" parent="1">
          <mxGeometry x="210" y="29.380000000000003" width="20" height="61.25" as="geometry" />
        </mxCell>
        <mxCell id="1anbtyB_ODF39JOE69Np-22" value="&lt;font face=&quot;Times New Roman&quot; style=&quot;font-size: 13px;&quot;&gt;R&lt;br&gt;S&lt;br&gt;T&lt;br&gt;B&lt;/font&gt;" style="rounded=0;whiteSpace=wrap;html=1;" vertex="1" parent="1">
          <mxGeometry x="242" y="29.380000000000003" width="20" height="61.25" as="geometry" />
        </mxCell>
        <mxCell id="1anbtyB_ODF39JOE69Np-23" value="&lt;font face=&quot;Times New Roman&quot; style=&quot;font-size: 13px;&quot;&gt;R&lt;br&gt;S&lt;br&gt;T&lt;br&gt;B&lt;/font&gt;" style="rounded=0;whiteSpace=wrap;html=1;" vertex="1" parent="1">
          <mxGeometry x="270" y="29.380000000000003" width="20" height="61.25" as="geometry" />
        </mxCell>
        <mxCell id="1anbtyB_ODF39JOE69Np-24" value="&lt;font face=&quot;Times New Roman&quot; style=&quot;font-size: 13px;&quot;&gt;R&lt;br&gt;S&lt;br&gt;T&lt;br&gt;B&lt;/font&gt;" style="rounded=0;whiteSpace=wrap;html=1;" vertex="1" parent="1">
          <mxGeometry x="300" y="29.369999999999997" width="20" height="61.25" as="geometry" />
        </mxCell>
        <mxCell id="1anbtyB_ODF39JOE69Np-25" value="&lt;font face=&quot;Times New Roman&quot; style=&quot;font-size: 13px;&quot;&gt;R&lt;br&gt;S&lt;br&gt;T&lt;br&gt;B&lt;/font&gt;" style="rounded=0;whiteSpace=wrap;html=1;" vertex="1" parent="1">
          <mxGeometry x="330" y="29.369999999999997" width="20" height="61.25" as="geometry" />
        </mxCell>
        <mxCell id="1anbtyB_ODF39JOE69Np-26" value="&lt;font face=&quot;Times New Roman&quot;&gt;&lt;span style=&quot;font-size: 13px;&quot;&gt;Conv&lt;/span&gt;&lt;/font&gt;" style="rounded=0;whiteSpace=wrap;html=1;rotation=-90;" vertex="1" parent="1">
          <mxGeometry x="350" y="49.69" width="40" height="20.63" as="geometry" />
        </mxCell>
        <mxCell id="1anbtyB_ODF39JOE69Np-33" style="edgeStyle=orthogonalEdgeStyle;rounded=0;orthogonalLoop=1;jettySize=auto;html=1;exitX=0.5;exitY=1;exitDx=0;exitDy=0;entryX=0;entryY=0.5;entryDx=0;entryDy=0;" edge="1" parent="1" source="1anbtyB_ODF39JOE69Np-30" target="1anbtyB_ODF39JOE69Np-31">
          <mxGeometry relative="1" as="geometry" />
        </mxCell>
        <mxCell id="1anbtyB_ODF39JOE69Np-30" value="&lt;font face=&quot;Times New Roman&quot;&gt;&lt;span style=&quot;font-size: 13px;&quot;&gt;Conv&lt;/span&gt;&lt;/font&gt;" style="rounded=0;whiteSpace=wrap;html=1;rotation=-90;" vertex="1" parent="1">
          <mxGeometry x="222" y="149.68" width="40" height="20.63" as="geometry" />
        </mxCell>
        <mxCell id="1anbtyB_ODF39JOE69Np-31" value="+" style="ellipse;whiteSpace=wrap;html=1;aspect=fixed;" vertex="1" parent="1">
          <mxGeometry x="262" y="149.68" width="20" height="20" as="geometry" />
        </mxCell>
        <mxCell id="1anbtyB_ODF39JOE69Np-34" value="" style="endArrow=classic;html=1;rounded=0;entryX=0;entryY=0.5;entryDx=0;entryDy=0;" edge="1" parent="1" target="1anbtyB_ODF39JOE69Np-9">
          <mxGeometry width="50" height="50" relative="1" as="geometry">
            <mxPoint x="20" y="160" as="sourcePoint" />
            <mxPoint x="60" y="90" as="targetPoint" />
          </mxGeometry>
        </mxCell>
        <mxCell id="1anbtyB_ODF39JOE69Np-35" value="" style="endArrow=classic;html=1;rounded=1;entryX=0.5;entryY=1;entryDx=0;entryDy=0;" edge="1" parent="1" target="1anbtyB_ODF39JOE69Np-31">
          <mxGeometry width="50" height="50" relative="1" as="geometry">
            <mxPoint x="30" y="160" as="sourcePoint" />
            <mxPoint x="60" y="90" as="targetPoint" />
            <Array as="points">
              <mxPoint x="30" y="190" />
              <mxPoint x="120" y="190" />
              <mxPoint x="272" y="190" />
            </Array>
          </mxGeometry>
        </mxCell>
        <mxCell id="1anbtyB_ODF39JOE69Np-40" value="" style="endArrow=classic;html=1;rounded=0;exitX=1;exitY=0.5;exitDx=0;exitDy=0;" edge="1" parent="1" source="1anbtyB_ODF39JOE69Np-31">
          <mxGeometry width="50" height="50" relative="1" as="geometry">
            <mxPoint x="300" y="250" as="sourcePoint" />
            <mxPoint x="300" y="160" as="targetPoint" />
          </mxGeometry>
        </mxCell>
        <mxCell id="1anbtyB_ODF39JOE69Np-41" value="LayerNorm" style="rounded=0;whiteSpace=wrap;html=1;rotation=-90;" vertex="1" parent="1">
          <mxGeometry x="335" y="149.21" width="70" height="21.57" as="geometry" />
        </mxCell>
        <mxCell id="1anbtyB_ODF39JOE69Np-42" value="浅层特征提取" style="text;html=1;strokeColor=none;fillColor=none;align=center;verticalAlign=middle;whiteSpace=wrap;rounded=0;" vertex="1" parent="1">
          <mxGeometry x="76.14" y="47.5" width="74" height="25" as="geometry" />
        </mxCell>
        <mxCell id="1anbtyB_ODF39JOE69Np-44" value="深层特征提取" style="text;html=1;strokeColor=none;fillColor=none;align=center;verticalAlign=middle;whiteSpace=wrap;rounded=0;" vertex="1" parent="1">
          <mxGeometry x="242" y="10" width="74" height="25" as="geometry" />
        </mxCell>
        <mxCell id="1anbtyB_ODF39JOE69Np-46" value="" style="shape=trapezoid;perimeter=trapezoidPerimeter;whiteSpace=wrap;html=1;fixedSize=1;rotation=-90;size=10;" vertex="1" parent="1">
          <mxGeometry x="446.25" y="23.140000000000008" width="40" height="73.74" as="geometry" />
        </mxCell>
        <mxCell id="1anbtyB_ODF39JOE69Np-47" value="" style="endArrow=classic;html=1;rounded=0;entryX=0.5;entryY=0;entryDx=0;entryDy=0;exitX=0.042;exitY=0.5;exitDx=0;exitDy=0;exitPerimeter=0;" edge="1" parent="1" source="1anbtyB_ODF39JOE69Np-8" target="1anbtyB_ODF39JOE69Np-41">
          <mxGeometry width="50" height="50" relative="1" as="geometry">
            <mxPoint x="310" y="260" as="sourcePoint" />
            <mxPoint x="360" y="210" as="targetPoint" />
          </mxGeometry>
        </mxCell>
      </root>
    </mxGraphModel>
  </diagram>
</mxfile>
